<svg width="15" height="16" viewBox="0 0 15 16" fill="none" xmlns="http://www.w3.org/2000/svg">
<path d="M6.57432 16C6.2198 16 5.91465 15.88 5.65888 15.64C5.4031 15.4 5.24869 15.1067 5.19564 14.76L5.01838 13.44C4.84769 13.3733 4.68697 13.2933 4.53624 13.2C4.3855 13.1067 4.23766 13.0067 4.0927 12.9L2.87159 13.42C2.54333 13.5667 2.21507 13.58 1.88682 13.46C1.55856 13.34 1.30252 13.1267 1.1187 12.82L0.193015 11.18C0.00919106 10.8733 -0.0433298 10.5467 0.0354517 10.2C0.114233 9.85333 0.291492 9.56667 0.567227 9.34L1.61108 8.54C1.59795 8.44667 1.59139 8.35653 1.59139 8.2696V7.7296C1.59139 7.6432 1.59795 7.55333 1.61108 7.46L0.567227 6.66C0.291492 6.43333 0.114233 6.14667 0.0354517 5.8C-0.0433298 5.45333 0.00919106 5.12667 0.193015 4.82L1.1187 3.18C1.30252 2.87333 1.55856 2.66 1.88682 2.54C2.21507 2.42 2.54333 2.43333 2.87159 2.58L4.0927 3.1C4.23713 2.99333 4.38813 2.89333 4.54569 2.8C4.70326 2.70667 4.86082 2.62667 5.01838 2.56L5.19564 1.24C5.24816 0.893333 5.40257 0.6 5.65888 0.36C5.91518 0.12 6.22032 0 6.57432 0H8.42568C8.7802 0 9.08561 0.12 9.34191 0.36C9.59821 0.6 9.75236 0.893333 9.80436 1.24L9.98162 2.56C10.1523 2.62667 10.3133 2.70667 10.4645 2.8C10.6158 2.89333 10.7634 2.99333 10.9073 3.1L12.1284 2.58C12.4567 2.43333 12.7849 2.42 13.1132 2.54C13.4414 2.66 13.6975 2.87333 13.8813 3.18L14.807 4.82C14.9908 5.12667 15.0433 5.45333 14.9645 5.8C14.8858 6.14667 14.7085 6.43333 14.4328 6.66L13.3889 7.46C13.402 7.55333 13.4086 7.64347 13.4086 7.7304V8.2696C13.4086 8.35653 13.3955 8.44667 13.3692 8.54L14.4131 9.34C14.6888 9.56667 14.8661 9.85333 14.9449 10.2C15.0236 10.5467 14.9711 10.8733 14.7873 11.18L13.8419 12.82C13.6581 13.1267 13.402 13.34 13.0738 13.46C12.7455 13.58 12.4173 13.5667 12.089 13.42L10.9073 12.9C10.7629 13.0067 10.6119 13.1067 10.4543 13.2C10.2967 13.2933 10.1392 13.3733 9.98162 13.44L9.80436 14.76C9.75184 15.1067 9.59769 15.4 9.34191 15.64C9.08613 15.88 8.78072 16 8.42568 16H6.57432ZM7.53939 10.8C8.30094 10.8 8.95089 10.5267 9.48923 9.98C10.0276 9.43333 10.2967 8.77333 10.2967 8C10.2967 7.22667 10.0276 6.56667 9.48923 6.02C8.95089 5.47333 8.30094 5.2 7.53939 5.2C6.76471 5.2 6.11134 5.47333 5.57931 6.02C5.04727 6.56667 4.78151 7.22667 4.78204 8C4.78256 8.77333 5.04858 9.43333 5.58009 9.98C6.11161 10.5267 6.76471 10.8 7.53939 10.8Z" fill="#F4F7FF"/>
</svg>
